<mxfile host="app.diagrams.net" agent="Mozilla/5.0 (X11; Ubuntu; Linux x86_64; rv:137.0) Gecko/20100101 Firefox/137.0" version="27.1.6">
  <diagram name="Page-1" id="Q_Y5vOs19XMr8ZMtz57X">
    <mxGraphModel dx="1360" dy="795" grid="1" gridSize="10" guides="1" tooltips="1" connect="1" arrows="1" fold="1" page="1" pageScale="1" pageWidth="850" pageHeight="1100" math="0" shadow="0">
      <root>
        <mxCell id="0" />
        <mxCell id="1" parent="0" />
        <mxCell id="RoEHXKqVC8zRtC_oqP53-17" value="" style="edgeStyle=orthogonalEdgeStyle;rounded=0;orthogonalLoop=1;jettySize=auto;html=1;" parent="1" source="RoEHXKqVC8zRtC_oqP53-1" target="RoEHXKqVC8zRtC_oqP53-3" edge="1">
          <mxGeometry relative="1" as="geometry" />
        </mxCell>
        <mxCell id="RoEHXKqVC8zRtC_oqP53-1" value="" style="ellipse;html=1;shape=startState;fillColor=#000000;strokeColor=none;" parent="1" vertex="1">
          <mxGeometry x="60" y="335" width="40" height="40" as="geometry" />
        </mxCell>
        <mxCell id="RoEHXKqVC8zRtC_oqP53-6" value="" style="edgeStyle=orthogonalEdgeStyle;rounded=0;orthogonalLoop=1;jettySize=auto;html=1;" parent="1" source="RoEHXKqVC8zRtC_oqP53-3" target="RoEHXKqVC8zRtC_oqP53-5" edge="1">
          <mxGeometry relative="1" as="geometry" />
        </mxCell>
        <mxCell id="RoEHXKqVC8zRtC_oqP53-3" value="Initialise Population" style="rounded=1;whiteSpace=wrap;html=1;fillColor=#f5f5f5;fontColor=#333333;strokeColor=#666666;" parent="1" vertex="1">
          <mxGeometry x="140" y="325" width="120" height="60" as="geometry" />
        </mxCell>
        <mxCell id="RoEHXKqVC8zRtC_oqP53-8" value="" style="edgeStyle=orthogonalEdgeStyle;rounded=0;orthogonalLoop=1;jettySize=auto;html=1;" parent="1" source="RoEHXKqVC8zRtC_oqP53-5" target="RoEHXKqVC8zRtC_oqP53-7" edge="1">
          <mxGeometry relative="1" as="geometry" />
        </mxCell>
        <mxCell id="RoEHXKqVC8zRtC_oqP53-5" value="Evaluate Each Candidate Solution" style="rounded=1;whiteSpace=wrap;html=1;fillColor=#f5f5f5;fontColor=#333333;strokeColor=#666666;" parent="1" vertex="1">
          <mxGeometry x="305" y="325" width="120" height="60" as="geometry" />
        </mxCell>
        <mxCell id="RoEHXKqVC8zRtC_oqP53-10" value="" style="edgeStyle=orthogonalEdgeStyle;rounded=0;orthogonalLoop=1;jettySize=auto;html=1;" parent="1" source="RoEHXKqVC8zRtC_oqP53-7" target="RoEHXKqVC8zRtC_oqP53-9" edge="1">
          <mxGeometry relative="1" as="geometry" />
        </mxCell>
        <mxCell id="RoEHXKqVC8zRtC_oqP53-7" value="Apply Selection Operator" style="rounded=1;whiteSpace=wrap;html=1;fillColor=#f5f5f5;fontColor=#333333;strokeColor=#666666;" parent="1" vertex="1">
          <mxGeometry x="470" y="325" width="120" height="60" as="geometry" />
        </mxCell>
        <mxCell id="RoEHXKqVC8zRtC_oqP53-15" value="" style="edgeStyle=orthogonalEdgeStyle;rounded=0;orthogonalLoop=1;jettySize=auto;html=1;" parent="1" source="RoEHXKqVC8zRtC_oqP53-9" target="RoEHXKqVC8zRtC_oqP53-14" edge="1">
          <mxGeometry relative="1" as="geometry" />
        </mxCell>
        <mxCell id="RoEHXKqVC8zRtC_oqP53-20" value="Termination Condition Reached?" style="edgeLabel;html=1;align=center;verticalAlign=middle;resizable=0;points=[];labelBackgroundColor=none;" parent="RoEHXKqVC8zRtC_oqP53-15" vertex="1" connectable="0">
          <mxGeometry x="-0.05" y="1" relative="1" as="geometry">
            <mxPoint x="89" as="offset" />
          </mxGeometry>
        </mxCell>
        <mxCell id="RoEHXKqVC8zRtC_oqP53-9" value="Apply Genetic Operator" style="rounded=1;whiteSpace=wrap;html=1;fillColor=#f5f5f5;fontColor=#333333;strokeColor=#666666;" parent="1" vertex="1">
          <mxGeometry x="630" y="325" width="120" height="60" as="geometry" />
        </mxCell>
        <mxCell id="RoEHXKqVC8zRtC_oqP53-18" value="" style="edgeStyle=orthogonalEdgeStyle;rounded=0;orthogonalLoop=1;jettySize=auto;html=1;" parent="1" source="RoEHXKqVC8zRtC_oqP53-14" target="RoEHXKqVC8zRtC_oqP53-16" edge="1">
          <mxGeometry relative="1" as="geometry" />
        </mxCell>
        <mxCell id="RoEHXKqVC8zRtC_oqP53-21" value="Yes" style="edgeLabel;html=1;align=center;verticalAlign=middle;resizable=0;points=[];labelBackgroundColor=none;" parent="RoEHXKqVC8zRtC_oqP53-18" vertex="1" connectable="0">
          <mxGeometry x="-0.248" y="1" relative="1" as="geometry">
            <mxPoint y="-9" as="offset" />
          </mxGeometry>
        </mxCell>
        <mxCell id="RoEHXKqVC8zRtC_oqP53-14" value="" style="rhombus;whiteSpace=wrap;html=1;strokeWidth=1;fillColor=#f8cecc;strokeColor=#b85450;" parent="1" vertex="1">
          <mxGeometry x="662.5" y="460" width="55" height="60" as="geometry" />
        </mxCell>
        <mxCell id="RoEHXKqVC8zRtC_oqP53-16" value="" style="ellipse;html=1;shape=endState;fillColor=#000000;strokeColor=#000000;" parent="1" vertex="1">
          <mxGeometry x="770" y="470" width="40" height="40" as="geometry" />
        </mxCell>
        <mxCell id="RoEHXKqVC8zRtC_oqP53-19" value="" style="edgeStyle=orthogonalEdgeStyle;rounded=0;orthogonalLoop=1;jettySize=auto;html=1;exitX=0.5;exitY=1;exitDx=0;exitDy=0;entryX=0.5;entryY=1;entryDx=0;entryDy=0;" parent="1" source="RoEHXKqVC8zRtC_oqP53-14" target="RoEHXKqVC8zRtC_oqP53-5" edge="1">
          <mxGeometry relative="1" as="geometry">
            <mxPoint x="700" y="395" as="sourcePoint" />
            <mxPoint x="700" y="435" as="targetPoint" />
          </mxGeometry>
        </mxCell>
        <mxCell id="RoEHXKqVC8zRtC_oqP53-22" value="No" style="edgeLabel;html=1;align=center;verticalAlign=middle;resizable=0;points=[];labelBackgroundColor=none;" parent="RoEHXKqVC8zRtC_oqP53-19" vertex="1" connectable="0">
          <mxGeometry x="-0.4318" y="4" relative="1" as="geometry">
            <mxPoint x="80" y="-14" as="offset" />
          </mxGeometry>
        </mxCell>
      </root>
    </mxGraphModel>
  </diagram>
</mxfile>
